<?xml version="1.0" encoding="UTF-8" standalone="no"?>
<svg
   xmlns:dc="http://purl.org/dc/elements/1.1/"
   xmlns:cc="http://creativecommons.org/ns#"
   xmlns:rdf="http://www.w3.org/1999/02/22-rdf-syntax-ns#"
   xmlns:svg="http://www.w3.org/2000/svg"
   xmlns="http://www.w3.org/2000/svg"
   xmlns:sodipodi="http://sodipodi.sourceforge.net/DTD/sodipodi-0.dtd"
   xmlns:inkscape="http://www.inkscape.org/namespaces/inkscape"
   version="1.1"
   viewBox="0 0 792.38007 234.58221"
   stroke-miterlimit="10"
   id="svg2"
   inkscape:version="0.91 r13725"
   sodipodi:docname="tanner-graph.svg"
   width="792.38007"
   height="234.58221"
   style="fill:none;stroke:none;stroke-linecap:square;stroke-miterlimit:10">
  <metadata
     id="metadata115">
    <rdf:RDF>
      <cc:Work
         rdf:about="">
        <dc:format>image/svg+xml</dc:format>
        <dc:type
           rdf:resource="http://purl.org/dc/dcmitype/StillImage" />
        <dc:title></dc:title>
      </cc:Work>
    </rdf:RDF>
  </metadata>
  <defs
     id="defs113" />
  <sodipodi:namedview
     pagecolor="#ffffff"
     bordercolor="#666666"
     borderopacity="1"
     objecttolerance="10"
     gridtolerance="10"
     guidetolerance="10"
     inkscape:pageopacity="0"
     inkscape:pageshadow="2"
     inkscape:window-width="1855"
     inkscape:window-height="1056"
     id="namedview111"
     showgrid="false"
     fit-margin-top="0"
     fit-margin-left="0"
     fit-margin-right="0"
     fit-margin-bottom="0"
     inkscape:zoom="1.7352784"
     inkscape:cx="396.19003"
     inkscape:cy="202.25338"
     inkscape:window-x="65"
     inkscape:window-y="24"
     inkscape:window-maximized="1"
     inkscape:current-layer="g7" />
  <clipPath
     id="geb77b3e481_0_2408.0">
    <path
       d="M 0,0 960,0 960,540 0,540 0,0 Z"
       id="path5"
       inkscape:connector-curvature="0"
       style="clip-rule:nonzero" />
  </clipPath>
  <g
     clip-path="url(#geb77b3e481_0_2408.0)"
     id="g7"
     transform="translate(-83.810104,-117.7485)">
    <path
       d="m 83.810104,145.15007 0,0 c 0,-15.13347 12.268097,-27.40157 27.401576,-27.40157 l 0,0 c 7.26735,0 14.23704,2.88694 19.37583,8.02574 5.13879,5.13879 8.02574,12.10848 8.02574,19.37583 l 0,0 c 0,15.13348 -12.2681,27.40158 -27.40157,27.40158 l 0,0 c -15.133478,0 -27.401575,-12.2681 -27.401575,-27.40158 z"
       id="path11"
       inkscape:connector-curvature="0"
       style="fill:#4a86e8;fill-rule:evenodd" />
    <path
       d="m 113.9873,153.41008 q -0.17187,-0.35938 -0.28125,-1.26563 -1.4375,1.48438 -3.40625,1.48438 -1.78125,0 -2.92187,-1 -1.125,-1 -1.125,-2.53125 0,-1.875 1.42187,-2.90625 1.42188,-1.03125 4,-1.03125 l 2,0 0,-0.95313 q 0,-1.0625 -0.65625,-1.70312 -0.64062,-0.64063 -1.89062,-0.64063 -1.09375,0 -1.84375,0.5625 -0.73438,0.54688 -0.73438,1.32813 l -2.04687,0 q 0,-0.89063 0.625,-1.71875 0.64062,-0.84375 1.73437,-1.32813 1.09375,-0.48437 2.39063,-0.48437 2.07812,0 3.25,1.03125 1.17187,1.03125 1.21875,2.84375 l 0,5.51562 q 0,1.64063 0.40625,2.625 l 0,0.17188 -2.14063,0 z m -3.39062,-1.5625 q 0.95312,0 1.8125,-0.5 0.875,-0.5 1.26562,-1.29688 l 0,-2.45312 -1.60937,0 q -3.76563,0 -3.76563,2.20312 0,0.96875 0.64063,1.51563 0.64062,0.53125 1.65625,0.53125 z"
       id="path13"
       inkscape:connector-curvature="0"
       style="fill:#eeeeee;fill-rule:nonzero" />
    <path
       d="m 312.61823,305.9685 46.36221,0 0,46.36221 -46.36221,0 z"
       id="path15"
       inkscape:connector-curvature="0"
       style="fill:#674ea7;fill-rule:evenodd" />
    <path
       d="m 335.19934,334.23773 q 0,-0.82813 -0.625,-1.28125 -0.625,-0.46875 -2.1875,-0.79688 -1.54688,-0.34375 -2.46875,-0.79687 -0.90625,-0.46875 -1.34375,-1.10938 -0.4375,-0.64062 -0.4375,-1.53125 0,-1.46875 1.25,-2.48437 1.25,-1.01563 3.1875,-1.01563 2.03125,0 3.29687,1.04688 1.26563,1.04687 1.26563,2.6875 l -2.0625,0 q 0,-0.84375 -0.71875,-1.45313 -0.70313,-0.60937 -1.78125,-0.60937 -1.125,0 -1.76563,0.5 -0.625,0.48437 -0.625,1.26562 0,0.73438 0.57813,1.125 0.59375,0.375 2.125,0.71875 1.54687,0.32813 2.48437,0.8125 0.95313,0.46875 1.40625,1.14063 0.46875,0.67187 0.46875,1.64062 0,1.59375 -1.28125,2.5625 -1.28125,0.96875 -3.32812,0.96875 -1.4375,0 -2.54688,-0.5 -1.10937,-0.51562 -1.73437,-1.42187 -0.625,-0.92188 -0.625,-1.98438 l 2.04687,0 q 0.0625,1.03125 0.82813,1.64063 0.76562,0.59375 2.03125,0.59375 1.15625,0 1.85937,-0.46875 0.70313,-0.46875 0.70313,-1.25 z"
       id="path17"
       inkscape:connector-curvature="0"
       style="fill:#eeeeee;fill-rule:nonzero" />
    <path
       d="m 341.55334,330.5971 q 0.4375,-0.4375 0.4375,-0.89063 l 0.71875,0 0,7.70313 -1.25,0 0,-5.92188 -1.40625,0 0,-0.53125 0.4375,0 q 0.70312,0 1.0625,-0.35937 z"
       id="path19"
       inkscape:connector-curvature="0"
       style="fill:#eeeeee;fill-rule:nonzero" />
    <path
       d="m 459.81088,305.9685 46.36221,0 0,46.36221 -46.36221,0 z"
       id="path21"
       inkscape:connector-curvature="0"
       style="fill:#674ea7;fill-rule:evenodd" />
    <path
       d="m 482.392,334.23773 q 0,-0.82813 -0.625,-1.28125 -0.625,-0.46875 -2.1875,-0.79688 -1.54688,-0.34375 -2.46875,-0.79687 -0.90625,-0.46875 -1.34375,-1.10938 -0.4375,-0.64062 -0.4375,-1.53125 0,-1.46875 1.25,-2.48437 1.25,-1.01563 3.1875,-1.01563 2.03125,0 3.29687,1.04688 1.26563,1.04687 1.26563,2.6875 l -2.0625,0 q 0,-0.84375 -0.71875,-1.45313 -0.70313,-0.60937 -1.78125,-0.60937 -1.125,0 -1.76563,0.5 -0.625,0.48437 -0.625,1.26562 0,0.73438 0.57813,1.125 0.59375,0.375 2.125,0.71875 1.54687,0.32813 2.48437,0.8125 0.95313,0.46875 1.40625,1.14063 0.46875,0.67187 0.46875,1.64062 0,1.59375 -1.28125,2.5625 -1.28125,0.96875 -3.32812,0.96875 -1.4375,0 -2.54688,-0.5 -1.10937,-0.51562 -1.73437,-1.42187 -0.625,-0.92188 -0.625,-1.98438 l 2.04687,0 q 0.0625,1.03125 0.82813,1.64063 0.76562,0.59375 2.03125,0.59375 1.15625,0 1.85937,-0.46875 0.70313,-0.46875 0.70313,-1.25 z"
       id="path23"
       inkscape:connector-curvature="0"
       style="fill:#eeeeee;fill-rule:nonzero" />
    <path
       d="m 486.52725,332.26898 q 0.1875,-1.5 0.79687,-2.10938 0.53125,-0.53125 1.51563,-0.53125 0.96875,0 1.59375,0.53125 0.60937,0.53125 0.60937,1.5 0,0.79688 -0.79687,1.85938 -0.60938,0.79687 -1.23438,1.5 -0.35937,0.4375 -0.79687,0.89062 -0.26563,0.34375 -0.53125,0.53125 l 3.625,0 0,1.0625 -4.78125,0 0,-0.79687 q 0.0937,-0.45313 0.71875,-1.25 1.14062,-1.23438 1.85937,-2.125 0.70313,-0.70313 0.70313,-1.67188 0,-0.4375 -0.26563,-0.70312 -0.26562,-0.26563 -0.625,-0.26563 -0.34375,0 -0.60937,0.26563 -0.625,0.60937 -0.53125,1.3125 l -1.25,0 z"
       id="path25"
       inkscape:connector-curvature="0"
       style="fill:#eeeeee;fill-rule:nonzero" />
    <path
       d="m 607.00354,305.9685 46.36218,0 0,46.36221 -46.36218,0 z"
       id="path27"
       inkscape:connector-curvature="0"
       style="fill:#674ea7;fill-rule:evenodd" />
    <path
       d="m 629.58466,334.23773 q 0,-0.82813 -0.625,-1.28125 -0.625,-0.46875 -2.1875,-0.79688 -1.54688,-0.34375 -2.46875,-0.79687 -0.90625,-0.46875 -1.34375,-1.10938 -0.4375,-0.64062 -0.4375,-1.53125 0,-1.46875 1.25,-2.48437 1.25,-1.01563 3.1875,-1.01563 2.03125,0 3.29687,1.04688 1.26563,1.04687 1.26563,2.6875 l -2.0625,0 q 0,-0.84375 -0.71875,-1.45313 -0.70313,-0.60937 -1.78125,-0.60937 -1.125,0 -1.76563,0.5 -0.625,0.48437 -0.625,1.26562 0,0.73438 0.57813,1.125 0.59375,0.375 2.125,0.71875 1.54687,0.32813 2.48437,0.8125 0.95313,0.46875 1.40625,1.14063 0.46875,0.67187 0.46875,1.64062 0,1.59375 -1.28125,2.5625 -1.28125,0.96875 -3.32812,0.96875 -1.4375,0 -2.54688,-0.5 -1.10937,-0.51562 -1.73437,-1.42187 -0.625,-0.92188 -0.625,-1.98438 l 2.04687,0 q 0.0625,1.03125 0.82813,1.64063 0.76562,0.59375 2.03125,0.59375 1.15625,0 1.85937,-0.46875 0.70313,-0.46875 0.70313,-1.25 z"
       id="path29"
       inkscape:connector-curvature="0"
       style="fill:#eeeeee;fill-rule:nonzero" />
    <path
       d="m 633.7199,331.83148 q 0.0937,-1.0625 0.71875,-1.67188 0.53125,-0.53125 1.5,-0.53125 1.0625,0 1.59375,0.53125 0.53125,0.53125 0.53125,1.40625 0,0.89063 -0.4375,1.32813 -0.35937,0.35937 -0.71875,0.4375 0.45313,0.0937 0.79688,0.45312 0.53125,0.53125 0.53125,1.40625 0,1.0625 -0.60938,1.6875 -0.625,0.625 -1.78125,0.625 -1.0625,0 -1.67187,-0.625 -0.625,-0.625 -0.625,-1.5 l 0,-0.45312 1.23437,0 0,0.35937 q 0,0.53125 0.35938,0.89063 0.26562,0.26562 0.70312,0.26562 0.53125,0 0.79688,-0.26562 0.35937,-0.35938 0.35937,-1.0625 0,-0.625 -0.35937,-0.98438 -0.26563,-0.26562 -0.79688,-0.26562 l -0.34375,0 0,-1.0625 0.26563,0 q 0.53125,0 0.70312,-0.17188 0.35938,-0.35937 0.35938,-1.0625 0,-0.4375 -0.35938,-0.79687 -0.17187,-0.17188 -0.53125,-0.17188 -0.35937,0 -0.53125,0.17188 -0.4375,0.45312 -0.4375,1.0625 l -1.25,0 z"
       id="path31"
       inkscape:connector-curvature="0"
       style="fill:#eeeeee;fill-rule:nonzero" />
    <path
       d="m 207.00276,145.15007 0,0 c 0,-15.13347 12.2681,-27.40157 27.40157,-27.40157 l 0,0 c 7.26735,0 14.23704,2.88694 19.37584,8.02574 5.1388,5.13879 8.02574,12.10848 8.02574,19.37583 l 0,0 c 0,15.13348 -12.26811,27.40158 -27.40158,27.40158 l 0,0 c -15.13347,0 -27.40157,-12.2681 -27.40157,-27.40158 z"
       id="path33"
       inkscape:connector-curvature="0"
       style="fill:#4a86e8;fill-rule:evenodd" />
    <path
       d="m 239.73636,147.5507 q 0,2.75 -1.26563,4.42187 -1.26562,1.65625 -3.39062,1.65625 -2.26563,0 -3.5,-1.60937 l -0.10938,1.39062 -1.875,0 0,-17 2.04688,0 0,6.34375 q 1.23437,-1.53125 3.40625,-1.53125 2.1875,0 3.4375,1.65625 1.25,1.64063 1.25,4.5 l 0,0.17188 z m -2.04688,-0.21875 q 0,-2.09375 -0.8125,-3.23438 -0.8125,-1.14062 -2.32812,-1.14062 -2.01563,0 -2.90625,1.875 l 0,5.1875 q 0.9375,1.875 2.9375,1.875 1.46875,0 2.28125,-1.14063 0.82812,-1.14062 0.82812,-3.42187 z"
       id="path35"
       inkscape:connector-curvature="0"
       style="fill:#eeeeee;fill-rule:nonzero" />
    <path
       d="m 330.1954,145.15007 0,0 c 0,-15.13347 12.2681,-27.40157 27.40158,-27.40157 l 0,0 c 7.26736,0 14.23706,2.88694 19.37585,8.02574 5.1388,5.13879 8.02573,12.10848 8.02573,19.37583 l 0,0 c 0,15.13348 -12.2681,27.40158 -27.40158,27.40158 l 0,0 c -15.13348,0 -27.40158,-12.2681 -27.40158,-27.40158 z"
       id="path37"
       inkscape:connector-curvature="0"
       style="fill:#4a86e8;fill-rule:evenodd" />
    <path
       d="m 358.01117,151.95695 q 1.09375,0 1.90625,-0.65625 0.82812,-0.67188 0.92187,-1.65625 l 1.9375,0 q -0.0625,1.01562 -0.71875,1.95312 -0.64062,0.92188 -1.73437,1.48438 -1.09375,0.54687 -2.3125,0.54687 -2.4375,0 -3.89063,-1.625 -1.4375,-1.64062 -1.4375,-4.46875 l 0,-0.34375 q 0,-1.75 0.64063,-3.10937 0.64062,-1.35938 1.84375,-2.10938 1.20312,-0.75 2.84375,-0.75 2.01562,0 3.34375,1.20313 1.32812,1.20312 1.42187,3.125 l -1.9375,0 q -0.0937,-1.15625 -0.89062,-1.90625 -0.78125,-0.75 -1.9375,-0.75 -1.5625,0 -2.42188,1.125 -0.85937,1.125 -0.85937,3.25 l 0,0.39062 q 0,2.0625 0.84375,3.1875 0.85937,1.10938 2.4375,1.10938 z"
       id="path39"
       inkscape:connector-curvature="0"
       style="fill:#eeeeee;fill-rule:nonzero" />
    <path
       d="M 111.21168,172.55165 335.8101,305.96896"
       id="path41"
       inkscape:connector-curvature="0"
       style="fill:#000000;fill-opacity:0;fill-rule:evenodd" />
    <path
       d="M 111.21168,172.55165 335.8101,305.96896"
       id="path43"
       inkscape:connector-curvature="0"
       style="fill-rule:evenodd;stroke:#595959;stroke-width:2;stroke-linecap:butt;stroke-linejoin:round;stroke-dasharray:8, 6" />
    <path
       d="M 335.79932,305.9685 234.4135,172.55119"
       id="path45"
       inkscape:connector-curvature="0"
       style="fill:#000000;fill-opacity:0;fill-rule:evenodd" />
    <path
       d="M 335.79932,305.9685 234.4135,172.55119"
       id="path47"
       inkscape:connector-curvature="0"
       style="fill-rule:evenodd;stroke:#595959;stroke-width:2;stroke-linecap:butt;stroke-linejoin:round;stroke-dasharray:8, 6" />
    <path
       d="M 482.99197,305.9685 111.21247,172.55119"
       id="path49"
       inkscape:connector-curvature="0"
       style="fill:#000000;fill-opacity:0;fill-rule:evenodd" />
    <path
       d="M 482.99197,305.9685 111.21247,172.55119"
       id="path51"
       inkscape:connector-curvature="0"
       style="fill-rule:evenodd;stroke:#595959;stroke-width:2;stroke-linecap:butt;stroke-linejoin:round;stroke-dasharray:8, 6" />
    <path
       d="M 482.99197,305.9685 357.60614,172.55119"
       id="path53"
       inkscape:connector-curvature="0"
       style="fill:#000000;fill-opacity:0;fill-rule:evenodd" />
    <path
       d="M 482.99197,305.9685 357.60614,172.55119"
       id="path55"
       inkscape:connector-curvature="0"
       style="fill-rule:evenodd;stroke:#595959;stroke-width:2;stroke-linecap:butt;stroke-linejoin:round;stroke-dasharray:8, 6" />
    <path
       d="M 630.18463,305.9685 234.40509,172.55119"
       id="path57"
       inkscape:connector-curvature="0"
       style="fill:#000000;fill-opacity:0;fill-rule:evenodd" />
    <path
       d="M 630.18463,305.9685 234.40509,172.55119"
       id="path59"
       inkscape:connector-curvature="0"
       style="fill-rule:evenodd;stroke:#595959;stroke-width:2;stroke-linecap:butt;stroke-linejoin:round;stroke-dasharray:8, 6" />
    <path
       d="M 630.18463,305.9685 357.58621,172.55119"
       id="path61"
       inkscape:connector-curvature="0"
       style="fill:#000000;fill-opacity:0;fill-rule:evenodd" />
    <path
       d="M 630.18463,305.9685 357.58621,172.55119"
       id="path63"
       inkscape:connector-curvature="0"
       style="fill-rule:evenodd;stroke:#595959;stroke-width:2;stroke-linecap:butt;stroke-linejoin:round;stroke-dasharray:8, 6" />
    <path
       d="m 453.38702,145.15007 0,0 c 0,-15.13347 12.2681,-27.40157 27.40155,-27.40157 l 0,0 c 7.26736,0 14.23706,2.88694 19.37585,8.02574 5.1388,5.13879 8.02573,12.10848 8.02573,19.37583 l 0,0 c 0,15.13348 -12.2681,27.40158 -27.40158,27.40158 l 0,0 c -15.13345,0 -27.40155,-12.2681 -27.40155,-27.40158 z"
       id="path65"
       inkscape:connector-curvature="0"
       style="fill:#4a86e8;fill-rule:evenodd" />
    <path
       d="m 475.4468,147.33195 q 0,-2.76563 1.29687,-4.4375 1.3125,-1.67188 3.4375,-1.67188 2.09375,0 3.32813,1.4375 l 0,-6.25 2.04687,0 0,17 -1.89062,0 -0.0937,-1.28125 q -1.23438,1.5 -3.42188,1.5 -2.07812,0 -3.39062,-1.70312 -1.3125,-1.70313 -1.3125,-4.4375 l 0,-0.15625 z m 2.04687,0.21875 q 0,2.04687 0.84375,3.20312 0.84375,1.14063 2.32813,1.14063 1.9375,0 2.84375,-1.75 l 0,-5.5 q -0.92188,-1.6875 -2.82813,-1.6875 -1.5,0 -2.34375,1.17187 -0.84375,1.15625 -0.84375,3.42188 z"
       id="path67"
       inkscape:connector-curvature="0"
       style="fill:#eeeeee;fill-rule:nonzero" />
    <path
       d="M 335.79932,305.9685 480.7757,172.55119"
       id="path69"
       inkscape:connector-curvature="0"
       style="fill:#000000;fill-opacity:0;fill-rule:evenodd" />
    <path
       d="M 335.79932,305.9685 480.7757,172.55119"
       id="path71"
       inkscape:connector-curvature="0"
       style="fill-rule:evenodd;stroke:#595959;stroke-width:2;stroke-linecap:butt;stroke-linejoin:round;stroke-dasharray:8, 6" />
    <path
       d="M 630.18463,305.9685 480.7988,172.55119"
       id="path73"
       inkscape:connector-curvature="0"
       style="fill:#000000;fill-opacity:0;fill-rule:evenodd" />
    <path
       d="M 630.18463,305.9685 480.7988,172.55119"
       id="path75"
       inkscape:connector-curvature="0"
       style="fill-rule:evenodd;stroke:#595959;stroke-width:2;stroke-linecap:butt;stroke-linejoin:round;stroke-dasharray:8, 6" />
    <path
       d="M 482.99197,305.9685 480.78726,172.55119"
       id="path77"
       inkscape:connector-curvature="0"
       style="fill:#000000;fill-opacity:0;fill-rule:evenodd" />
    <path
       d="M 482.99197,305.9685 480.78726,172.55119"
       id="path79"
       inkscape:connector-curvature="0"
       style="fill-rule:evenodd;stroke:#595959;stroke-width:2;stroke-linecap:butt;stroke-linejoin:round;stroke-dasharray:8, 6" />
    <path
       d="m 575.00275,145.15007 0,0 c 0,-15.13347 12.26813,-27.40157 27.40161,-27.40157 l 0,0 c 7.26733,0 14.237,2.88694 19.37579,8.02574 5.1388,5.13879 8.02576,12.10848 8.02576,19.37583 l 0,0 c 0,15.13348 -12.26813,27.40158 -27.40155,27.40158 l 0,0 c -15.13348,0 -27.40161,-12.2681 -27.40161,-27.40158 z"
       id="path81"
       inkscape:connector-curvature="0"
       style="fill:#4a86e8;fill-rule:evenodd" />
    <path
       d="m 596.98425,151.7382 7,0 0,1.67187 -9.5,0 0,-1.5 6.60937,-8.78125 -6.5,0 0,-1.6875 9.0625,0 0,1.45313 -6.67187,8.84375 z"
       id="path83"
       inkscape:connector-curvature="0"
       style="fill:#eeeeee;fill-rule:nonzero" />
    <path
       d="m 607.9316,146.59758 q 0.4375,-0.4375 0.4375,-0.89063 l 0.71875,0 0,7.70313 -1.25,0 0,-5.92188 -1.40625,0 0,-0.53125 0.4375,0 q 0.70312,0 1.0625,-0.35937 z"
       id="path85"
       inkscape:connector-curvature="0"
       style="fill:#eeeeee;fill-rule:nonzero" />
    <path
       d="m 698.19543,145.15007 0,0 c 0,-15.13347 12.26807,-27.40157 27.40155,-27.40157 l 0,0 c 7.26733,0 14.23706,2.88694 19.37585,8.02574 5.1388,5.13879 8.0257,12.10848 8.0257,19.37583 l 0,0 c 0,15.13348 -12.26807,27.40158 -27.40155,27.40158 l 0,0 c -15.13348,0 -27.40155,-12.2681 -27.40155,-27.40158 z"
       id="path87"
       inkscape:connector-curvature="0"
       style="fill:#4a86e8;fill-rule:evenodd" />
    <path
       d="m 720.17694,151.7382 7,0 0,1.67187 -9.5,0 0,-1.5 6.60937,-8.78125 -6.5,0 0,-1.6875 9.0625,0 0,1.45313 -6.67187,8.84375 z"
       id="path89"
       inkscape:connector-curvature="0"
       style="fill:#eeeeee;fill-rule:nonzero" />
    <path
       d="m 728.90546,148.26945 q 0.1875,-1.5 0.79687,-2.10938 0.53125,-0.53125 1.51563,-0.53125 0.96875,0 1.59375,0.53125 0.60937,0.53125 0.60937,1.5 0,0.79688 -0.79687,1.85938 -0.60938,0.79687 -1.23438,1.5 -0.35937,0.4375 -0.79687,0.89062 -0.26563,0.34375 -0.53125,0.53125 l 3.625,0 0,1.0625 -4.78125,0 0,-0.79687 q 0.0937,-0.45313 0.71875,-1.25 1.14062,-1.23438 1.85937,-2.125 0.70313,-0.70313 0.70313,-1.67188 0,-0.4375 -0.26563,-0.70312 -0.26562,-0.26563 -0.625,-0.26563 -0.34375,0 -0.60937,0.26563 -0.625,0.60937 -0.53125,1.3125 l -1.25,0 z"
       id="path91"
       inkscape:connector-curvature="0"
       style="fill:#eeeeee;fill-rule:nonzero" />
    <path
       d="m 821.387,145.15007 0,0 c 0,-15.13347 12.26807,-27.40157 27.40155,-27.40157 l 0,0 c 7.26733,0 14.23706,2.88694 19.37585,8.02574 5.1388,5.13879 8.02576,12.10848 8.02576,19.37583 l 0,0 c 0,15.13348 -12.26813,27.40158 -27.40161,27.40158 l 0,0 c -15.13348,0 -27.40155,-12.2681 -27.40155,-27.40158 z"
       id="path93"
       inkscape:connector-curvature="0"
       style="fill:#4a86e8;fill-rule:evenodd" />
    <path
       d="m 843.3685,151.7382 7,0 0,1.67187 -9.5,0 0,-1.5 6.60938,-8.78125 -6.5,0 0,-1.6875 9.0625,0 0,1.45313 -6.67188,8.84375 z"
       id="path95"
       inkscape:connector-curvature="0"
       style="fill:#eeeeee;fill-rule:nonzero" />
    <path
       d="m 852.0971,147.83195 q 0.0937,-1.0625 0.71875,-1.67188 0.53125,-0.53125 1.5,-0.53125 1.0625,0 1.59375,0.53125 0.53125,0.53125 0.53125,1.40625 0,0.89063 -0.4375,1.32813 -0.35938,0.35937 -0.71875,0.4375 0.45312,0.0937 0.79687,0.45312 0.53125,0.53125 0.53125,1.40625 0,1.0625 -0.60937,1.6875 -0.625,0.625 -1.78125,0.625 -1.0625,0 -1.67188,-0.625 -0.625,-0.625 -0.625,-1.5 l 0,-0.45312 1.23438,0 0,0.35937 q 0,0.53125 0.35937,0.89063 0.26563,0.26562 0.70313,0.26562 0.53125,0 0.79687,-0.26562 0.35938,-0.35938 0.35938,-1.0625 0,-0.625 -0.35938,-0.98438 -0.26562,-0.26562 -0.79687,-0.26562 l -0.34375,0 0,-1.0625 0.26562,0 q 0.53125,0 0.70313,-0.17188 0.35937,-0.35937 0.35937,-1.0625 0,-0.4375 -0.35937,-0.79687 -0.17188,-0.17188 -0.53125,-0.17188 -0.35938,0 -0.53125,0.17188 -0.4375,0.45312 -0.4375,1.0625 l -1.25,0 z"
       id="path97"
       inkscape:connector-curvature="0"
       style="fill:#eeeeee;fill-rule:nonzero" />
    <path
       d="M 602.40436,172.55165 335.79016,305.96896"
       id="path99"
       inkscape:connector-curvature="0"
       style="fill:#000000;fill-opacity:0;fill-rule:evenodd" />
    <path
       d="M 602.40436,172.55165 335.79016,305.96896"
       id="path101"
       inkscape:connector-curvature="0"
       style="fill-rule:evenodd;stroke:#595959;stroke-width:2;stroke-linecap:butt;stroke-linejoin:round;stroke-dasharray:8, 6" />
    <path
       d="M 725.597,172.55165 482.98283,305.96896"
       id="path103"
       inkscape:connector-curvature="0"
       style="fill:#000000;fill-opacity:0;fill-rule:evenodd" />
    <path
       d="M 725.597,172.55165 482.98283,305.96896"
       id="path105"
       inkscape:connector-curvature="0"
       style="fill-rule:evenodd;stroke:#595959;stroke-width:2;stroke-linecap:butt;stroke-linejoin:round;stroke-dasharray:8, 6" />
    <path
       d="M 848.7886,172.55165 630.17446,305.96896"
       id="path107"
       inkscape:connector-curvature="0"
       style="fill:#000000;fill-opacity:0;fill-rule:evenodd" />
    <path
       d="M 848.7886,172.55165 630.17446,305.96896"
       id="path109"
       inkscape:connector-curvature="0"
       style="fill-rule:evenodd;stroke:#595959;stroke-width:2;stroke-linecap:butt;stroke-linejoin:round;stroke-dasharray:8, 6" />
  </g>
</svg>
